<?xml version="1.0" encoding="UTF-8"?>
<svg width="16px" height="16px" viewBox="0 0 80 80" xmlns="http://www.w3.org/2000/svg">
<path d="m56.089 75.5c-3.21 0-6.384-0.785-9.177-2.271l-0.153-0.082-0.171 0.031c-2.03 0.371-4.118 0.559-6.204 0.559-18.659 0-33.839-14.967-33.839-33.364 0-2.244 0.23-4.499 0.685-6.703l0.04-0.19-0.1-0.167c-1.747-2.923-2.67-6.271-2.67-9.681 0-10.549 8.71-19.132 19.415-19.132 3.666 0 7.237 1.016 10.328 2.937l0.16 0.1 0.188-0.031c1.911-0.324 3.86-0.488 5.793-0.488 18.661 0 33.844 14.964 33.844 33.358 0 2.428-0.265 4.837-0.787 7.163l-0.039 0.175 0.081 0.16c1.339 2.639 2.018 5.498 2.018 8.495-1e-3 10.548-8.709 19.131-19.412 19.131z" fill="#7accff"/>
<path d="M23.916,5c3.572,0,7.052,0.989,10.064,2.861l0.322,0.2l0.373-0.063 c1.885-0.319,3.806-0.481,5.71-0.481c18.386,0,33.344,14.74,33.344,32.858c0,2.389-0.261,4.762-0.775,7.053l-0.079,0.351 l0.163,0.321C74.339,50.668,75,53.45,75,56.368C75,66.642,66.517,75,56.089,75c-3.129,0-6.221-0.765-8.941-2.212l-0.307-0.163 l-0.342,0.062c-2.002,0.365-4.059,0.551-6.114,0.551c-18.383,0-33.339-14.743-33.339-32.864c0-2.209,0.227-4.431,0.675-6.602 l0.079-0.381l-0.2-0.334C5.899,30.211,5,26.952,5,23.632C5,13.358,13.485,5,23.916,5 M23.916,4C12.919,4,4,12.793,4,23.632 c0,3.629,0.997,7.02,2.74,9.938c-0.454,2.202-0.696,4.476-0.696,6.804c0,18.708,15.372,33.864,34.339,33.864 c2.15,0,4.248-0.193,6.294-0.567C49.472,75.157,52.685,76,56.089,76C67.087,76,76,67.213,76,56.368 c0-3.134-0.74-6.095-2.071-8.721c0.526-2.345,0.799-4.779,0.799-7.272c0-18.696-15.377-33.858-34.344-33.858 c-2.001,0-3.963,0.171-5.877,0.495C31.443,5.107,27.814,4,23.916,4L23.916,4z" fill="#788b9c"/>
<path d="m55.058 53.987c-1.351 1.885-3.344 3.377-5.928 4.433-2.556 1.047-5.625 1.58-9.113 1.58-4.191 0-7.706-0.725-10.445-2.161-1.961-1.044-3.581-2.46-4.801-4.205-1.244-1.758-1.872-3.508-1.872-5.196 0-1.052 0.41-1.969 1.216-2.717 0.801-0.739 1.826-1.112 3.045-1.112 1.002 0 1.867 0.294 2.57 0.879 0.675 0.561 1.247 1.394 1.709 2.464 0.517 1.17 1.081 2.151 1.681 2.932 0.568 0.743 1.393 1.375 2.445 1.862 1.058 0.496 2.482 0.744 4.238 0.744 2.412 0 4.387-0.506 5.873-1.506 1.453-0.977 2.161-2.156 2.161-3.592 0-1.137-0.368-2.03-1.123-2.727-0.796-0.734-1.849-1.305-3.115-1.693-1.328-0.406-3.129-0.846-5.356-1.31-3.028-0.641-5.598-1.398-7.641-2.254-2.096-0.879-3.781-2.095-5.015-3.615-1.253-1.548-1.886-3.484-1.886-5.766 0-2.175 0.666-4.135 1.984-5.822 1.3-1.674 3.208-2.984 5.663-3.877 2.417-0.885 5.299-1.328 8.555-1.328 2.607 0 4.899 0.294 6.813 0.884 1.919 0.589 3.544 1.384 4.815 2.366 1.286 0.991 2.235 2.048 2.836 3.147 0.605 1.109 0.912 2.212 0.912 3.279 0 1.028-0.4 1.964-1.196 2.778-0.796 0.818-1.807 1.23-2.994 1.23-1.081 0-1.928-0.257-2.515-0.767-0.545-0.477-1.112-1.221-1.742-2.287-0.726-1.366-1.607-2.441-2.617-3.194-0.979-0.734-2.622-1.109-4.871-1.109-2.091 0-3.791 0.412-5.052 1.23-1.219 0.786-1.812 1.688-1.812 2.759 0 0.655 0.191 1.202 0.582 1.674 0.419 0.496 1.002 0.935 1.742 1.3 0.768 0.378 1.556 0.683 2.347 0.898 0.81 0.22 2.17 0.552 4.038 0.977 2.361 0.501 4.531 1.056 6.45 1.66 1.942 0.617 3.623 1.37 4.992 2.249 1.393 0.898 2.5 2.049 3.287 3.424 0.787 1.38 1.182 3.086 1.182 5.07-2e-3 2.37-0.686 4.529-2.042 6.419z" fill="#fff"/>
</svg>
